<svg xmlns="http://www.w3.org/2000/svg" width="760" height="210" viewBox="0 0 760 210" role="img" aria-labelledby="title desc">
  <title id="title">Single-cell-inspired interaction sketch</title>
  <desc id="desc">A shotgun-pathology-inspired compact diagram connecting a T cell, tumor state, and reference centroids.</desc>
  <defs><marker id="arrow" viewBox="0 0 10 10" refX="8" refY="5" markerWidth="6" markerHeight="6" orient="auto-start-reverse"><path d="M 0 0 L 10 5 L 0 10 z" fill="#25b86b"/></marker></defs>
  <rect width="760" height="210" rx="16" fill="#f7fbf9" stroke="#c7dfd1"/>
  <g font-family="-apple-system,BlinkMacSystemFont,'Segoe UI',sans-serif">
    <text x="22" y="28" font-size="13" font-weight="700" fill="#35634a" letter-spacing="1">SINGLE-CELL INTERACTION SNAPSHOT</text>
    <g transform="translate(82 106)"><circle r="47" fill="#dff7e8" stroke="#29b86a" stroke-width="3"/><circle cx="-13" cy="-5" r="15" fill="#9edbb6"/><circle cx="18" cy="10" r="10" fill="#72c999"/><circle cx="1" cy="-18" r="5" fill="#fff"/><text x="0" y="70" text-anchor="middle" font-size="13" fill="#24563c">T cell</text></g>
    <path d="M135 106 C190 68 210 68 263 106" fill="none" stroke="#25b86b" stroke-width="3" marker-end="url(#arrow)"/>
    <g transform="translate(320 106)"><circle r="54" fill="#fff1e7" stroke="#ef9961" stroke-width="3"/><path d="M-34-7 Q-10-40 16-18 T34 14 Q2 43-31 20Z" fill="#f6c39d"/><circle cx="-12" cy="0" r="7" fill="#d77b4e"/><circle cx="16" cy="-7" r="5" fill="#d77b4e"/><text x="0" y="77" text-anchor="middle" font-size="13" fill="#70462f">Shotgun tissue field</text></g>
    <path d="M378 106 C431 68 451 68 503 106" fill="none" stroke="#25b86b" stroke-width="3" marker-end="url(#arrow)"/>
    <g transform="translate(580 75)"><circle r="31" fill="#e4f0ff" stroke="#5f98d5" stroke-width="2"/><text text-anchor="middle" y="5" font-size="12" fill="#2c5684">LUAD</text></g>
    <g transform="translate(580 143)"><circle r="31" fill="#f0e8ff" stroke="#9d78d2" stroke-width="2"/><text text-anchor="middle" y="5" font-size="12" fill="#5a4084">LUSC</text></g>
    <path d="M520 93 L547 81 M520 119 L547 137" stroke="#7b91a4" stroke-width="2" stroke-dasharray="4 4" marker-end="url(#arrow)"/>
    <text x="680" y="102" text-anchor="middle" font-size="11" fill="#577064">model state</text><text x="680" y="118" text-anchor="middle" font-size="11" fill="#577064">reference shift</text>
  </g>
</svg>
